<svg width="27" height="27" viewBox="0 0 27 27" fill="none" xmlns="http://www.w3.org/2000/svg">
<rect y="0.379822" width="26.1812" height="26.058" rx="4.54026" fill="white" fill-opacity="0.05"/>
<rect x="0.225761" y="0.605583" width="25.7297" height="25.6064" rx="4.3145" stroke="white" stroke-opacity="0.08" stroke-width="0.451522"/>
<g clip-path="url(#clip0_2036_137)">
<path d="M9.70435 14.1613V12.6562C9.70435 11.2372 9.70435 10.5277 10.1452 10.0869C10.586 9.64606 11.2955 9.64606 12.7145 9.64606H13.467C14.886 9.64606 15.5955 9.64606 16.0364 10.0869C16.2821 10.3327 16.3909 10.6619 16.439 11.1511M16.4772 12.6562V14.1613C16.4772 15.5803 16.4772 16.2898 16.0364 16.7306C15.5955 17.1714 14.886 17.1714 13.467 17.1714H12.7145C11.2955 17.1714 10.586 17.1714 10.1452 16.7306C9.8994 16.4848 9.79065 16.1555 9.74253 15.6664" stroke="white" stroke-width="0.846604" stroke-linecap="round"/>
<path d="M11.5857 14.1613H13.467" stroke="white" stroke-width="0.846604" stroke-linecap="round"/>
<path d="M11.5857 12.6563H11.962M14.5958 12.6563H13.0908" stroke="white" stroke-width="0.846604" stroke-linecap="round"/>
</g>
<defs>
<clipPath id="clip0_2036_137">
<rect x="8.57544" y="8.89355" width="9.03045" height="9.03045" rx="2.82201" fill="white"/>
</clipPath>
</defs>
</svg>
